<svg xmlns="http://www.w3.org/2000/svg" width="96" height="96" viewBox="0 0 96 96"
     fill="none" stroke="#1C5AA8" stroke-width="3.8" stroke-linecap="round" stroke-linejoin="round">
  <!-- Stomach -->
  <path d="M38 23 C38 28 36 31 32 34 C25 40 26 52 34 57 C42 62 53 59 56 51 C58 45 56 39 51 36 C48 34 46 32 46 28 C46 24 42 21 38 23 Z" />
  <!-- Contents boundary + dots -->
  <path d="M31 49 C38 54 48 53 53 47" />
  <circle cx="35" cy="53" r="1.5" fill="#1C5AA8" stroke="none" />
  <circle cx="40" cy="55" r="1.5" fill="#1C5AA8" stroke="none" />
  <circle cx="45" cy="55" r="1.5" fill="#1C5AA8" stroke="none" />
  <circle cx="50" cy="53" r="1.5" fill="#1C5AA8" stroke="none" />
  <!-- Looping arrow over the top -->
  <path d="M39 20 C45 12 59 12 64 21" />
  <path d="M64 21 L57.5 20" />
  <path d="M64 21 L62 14.5" />
  <!-- Clock -->
  <circle cx="73" cy="53" r="12" />
  <path d="M73 53 V46" />
  <path d="M73 53 H79" />
  <circle cx="73" cy="53" r="1.4" fill="#1C5AA8" stroke="none" />
</svg>
