<svg xmlns="http://www.w3.org/2000/svg" width="96" height="96" viewBox="0 0 96 96"
     fill="none" stroke="#1C5AA8" stroke-width="3.8" stroke-linecap="round" stroke-linejoin="round">
  <!-- Speech bubble with tail (bottom-left) -->
  <path d="M47 17 C59 17 69 26 69 38 C69 50 59 59 47 59 C44 59 41 58.5 39 57.5 L30 62 L34 53 C29 49 26 44 26 38 C26 26 35 17 47 17 Z" />
  <!-- Doctor -->
  <circle cx="45" cy="32" r="6.5" />
  <path d="M34 52 C34 43 39 39 45 39 C51 39 56 43 56 52" />
  <!-- Stethoscope -->
  <path d="M40 42 C38 47 39 52 44 53 C48 54 51 51 51 48" />
  <circle cx="51" cy="46" r="2.6" />
  <!-- Chat bubble -->
  <path d="M66 44 H78 C80 44 82 46 82 48 V54 C82 56 80 58 78 58 H70 L66 62 V58 C64 58 62 56 62 54 V48 C62 46 64 44 66 44 Z" />
  <circle cx="67.5" cy="51" r="1.6" fill="#1C5AA8" stroke="none" />
  <circle cx="72" cy="51" r="1.6" fill="#1C5AA8" stroke="none" />
  <circle cx="76.5" cy="51" r="1.6" fill="#1C5AA8" stroke="none" />
</svg>
