<svg xmlns="http://www.w3.org/2000/svg" width="96" height="96" viewBox="0 0 96 96"
     fill="none" stroke="#1C5AA8" stroke-width="3.8" stroke-linecap="round" stroke-linejoin="round">
  <!-- Fork -->
  <path d="M15 16 V27" />
  <path d="M21 15 V27" />
  <path d="M27 16 V27" />
  <path d="M15 27 C15 32 18 34 21 34 C24 34 27 32 27 27" />
  <path d="M21 34 V66" />
  <!-- Plate -->
  <ellipse cx="49" cy="51" rx="27" ry="13" />
  <ellipse cx="49" cy="50" rx="20" ry="8" />
  <!-- Food (leafy) -->
  <path d="M38 50 C34 46 39 41 43 44 C44 38 53 39 53 44 C58 43 61 49 56 52 C57 57 50 58 47 54 C43 57 36 54 38 50 Z" />
  <path d="M46 45 C46 49 45 51 43 53" />
  <path d="M50 46 C50 49 50 51 49 53" />
  <!-- Crescent moon with clock -->
  <path d="M70 16 A12 12 0 1 0 76 39 A9.5 9.5 0 1 1 70 16 Z" />
  <circle cx="68" cy="28" r="5.5" />
  <path d="M68 28 V24" />
  <path d="M68 28 H71" />
  <!-- Sparkle -->
  <path d="M87 9 L89 14 L94 16 L89 18 L87 23 L85 18 L80 16 L85 14 Z" fill="#1C5AA8" stroke-width="2" />
</svg>
